<svg width="16" height="16" viewBox="0 0 16 16" fill="none" xmlns="http://www.w3.org/2000/svg">
<path d="M8 15C6.14348 15 4.36301 14.2625 3.05025 12.9497C1.7375 11.637 1 9.85652 1 8C1 6.14348 1.7375 4.36301 3.05025 3.05025C4.36301 1.7375 6.14348 1 8 1C9.85652 1 11.637 1.7375 12.9497 3.05025C14.2625 4.36301 15 6.14348 15 8C15 9.85652 14.2625 11.637 12.9497 12.9497C11.637 14.2625 9.85652 15 8 15ZM8 16C10.1217 16 12.1566 15.1571 13.6569 13.6569C15.1571 12.1566 16 10.1217 16 8C16 5.87827 15.1571 3.84344 13.6569 2.34315C12.1566 0.842855 10.1217 0 8 0C5.87827 0 3.84344 0.842855 2.34315 2.34315C0.842855 3.84344 0 5.87827 0 8C0 10.1217 0.842855 12.1566 2.34315 13.6569C3.84344 15.1571 5.87827 16 8 16Z" fill="#101828"/>
<path d="M10.97 4.97001L10.95 4.99201L7.477 9.41701L5.384 7.32301C5.24182 7.19053 5.05378 7.1184 4.85948 7.12183C4.66518 7.12526 4.47979 7.20397 4.34238 7.34138C4.20496 7.4788 4.12625 7.66418 4.12282 7.85848C4.1194 8.05278 4.19152 8.24083 4.324 8.38301L6.97 11.03C7.04128 11.1012 7.12616 11.1572 7.21958 11.1949C7.313 11.2325 7.41305 11.2509 7.51374 11.2491C7.61444 11.2472 7.71373 11.2251 7.8057 11.184C7.89766 11.1429 7.9804 11.0838 8.049 11.01L12.041 6.02001C12.1769 5.87734 12.2512 5.6869 12.2479 5.48987C12.2445 5.29285 12.1638 5.10505 12.0231 4.9671C11.8823 4.82915 11.693 4.75211 11.4959 4.75266C11.2989 4.7532 11.1099 4.83128 10.97 4.97001Z" fill="#101828"/>
</svg>
