<svg width="12" height="15" viewBox="0 0 12 15" fill="none" xmlns="http://www.w3.org/2000/svg">
<path d="M9.53063 8.38125C9.03938 9.37687 8.37375 10.3688 7.69313 11.2594C7.04677 12.0984 6.35642 12.9027 5.625 13.6687C4.89358 12.9027 4.20324 12.0984 3.55688 11.2594C2.87625 10.3688 2.21063 9.37687 1.71938 8.38125C1.2225 7.37531 0.9375 6.43313 0.9375 5.625C0.9375 4.3818 1.43136 3.18951 2.31044 2.31044C3.18951 1.43136 4.3818 0.9375 5.625 0.9375C6.8682 0.9375 8.06049 1.43136 8.93956 2.31044C9.81864 3.18951 10.3125 4.3818 10.3125 5.625C10.3125 6.43313 10.0266 7.37531 9.53063 8.38125ZM5.625 15C5.625 15 11.25 9.66938 11.25 5.625C11.25 4.13316 10.6574 2.70242 9.60248 1.64752C8.54758 0.592632 7.11684 0 5.625 0C4.13316 0 2.70242 0.592632 1.64752 1.64752C0.592632 2.70242 2.22302e-08 4.13316 0 5.625C0 9.66938 5.625 15 5.625 15Z" fill="#101828"/>
<path d="M5.625 7.5C5.12772 7.5 4.65081 7.30246 4.29917 6.95083C3.94754 6.59919 3.75 6.12228 3.75 5.625C3.75 5.12772 3.94754 4.65081 4.29917 4.29917C4.65081 3.94754 5.12772 3.75 5.625 3.75C6.12228 3.75 6.59919 3.94754 6.95082 4.29917C7.30246 4.65081 7.5 5.12772 7.5 5.625C7.5 6.12228 7.30246 6.59919 6.95082 6.95083C6.59919 7.30246 6.12228 7.5 5.625 7.5ZM5.625 8.4375C6.37092 8.4375 7.08629 8.14118 7.61374 7.61374C8.14118 7.08629 8.4375 6.37092 8.4375 5.625C8.4375 4.87908 8.14118 4.16371 7.61374 3.63626C7.08629 3.10882 6.37092 2.8125 5.625 2.8125C4.87908 2.8125 4.16371 3.10882 3.63626 3.63626C3.10882 4.16371 2.8125 4.87908 2.8125 5.625C2.8125 6.37092 3.10882 7.08629 3.63626 7.61374C4.16371 8.14118 4.87908 8.4375 5.625 8.4375Z" fill="#101828"/>
</svg>
